<?xml version="1.0" encoding="UTF-8" standalone="no"?>
<!-- Created with Inkscape (http://www.inkscape.org/) -->

<svg
   width="70mm"
   height="70mm"
   viewBox="0 0 70 70"
   version="1.1"
   id="svg1"
   inkscape:export-filename="icon.png"
   inkscape:export-xdpi="371.56573"
   inkscape:export-ydpi="371.56573"
   inkscape:version="1.3.2 (091e20e, 2023-11-25)"
   xml:space="preserve"
   sodipodi:docname="icon.svg"
   xmlns:inkscape="http://www.inkscape.org/namespaces/inkscape"
   xmlns:sodipodi="http://sodipodi.sourceforge.net/DTD/sodipodi-0.dtd"
   xmlns="http://www.w3.org/2000/svg"
   xmlns:svg="http://www.w3.org/2000/svg"><sodipodi:namedview
     id="namedview1"
     pagecolor="#ffffff"
     bordercolor="#000000"
     borderopacity="0.25"
     inkscape:showpageshadow="2"
     inkscape:pageopacity="0.0"
     inkscape:pagecheckerboard="0"
     inkscape:deskcolor="#d1d1d1"
     inkscape:document-units="mm"
     inkscape:zoom="1.8877857"
     inkscape:cx="126.07363"
     inkscape:cy="118.39268"
     inkscape:window-width="1440"
     inkscape:window-height="776"
     inkscape:window-x="0"
     inkscape:window-y="66"
     inkscape:window-maximized="0"
     inkscape:current-layer="layer1"
     showguides="true" /><defs
     id="defs1" /><g
     inkscape:label="Layer 1"
     inkscape:groupmode="layer"
     id="layer1"><path
       style="fill:#a65eff;fill-opacity:1;stroke:none;stroke-width:1.04519;stroke-linecap:round;stroke-linejoin:round;stroke-dasharray:none;stroke-dashoffset:12.6992;stroke-opacity:1"
       d="m 35.41919,64.967197 3.52214,-3.38402 7.94212,-8.00882 5.52494,-7.04254 2.55528,-6.42274 0.75969,-6.69899 -0.62159,-5.17963 -1.65746,-4.76527 -4.10791,-4.91711 -5.05814,-3.34515 -2.01452,-0.97109 -1.6414,-1.30655 -3.50694,5.37002 2.48407,5.2239 4.60287,4.2741 -16.18577,5.59251 0.1209,18.73713 3.8683,8.09603 z"
       id="path528-4-1-0-5"
       sodipodi:nodetypes="ccccccccccccccccccc" /><path
       style="fill:#ffffff;fill-opacity:1;stroke:none;stroke-width:1;stroke-linecap:round;stroke-linejoin:round;stroke-dasharray:none;stroke-dashoffset:12.6992;stroke-opacity:1"
       d="m 48.91958,4.1130568 -10.42395,15.4180502 2.33907,3.08785 7.42566,6.80699 0.52676,1.84365 -0.57944,2.05435 -1.89631,1.3169 -2.78318,0.25706 -8.6962,-1.84287 -1.47532,-0.26456 -0.34301,7.3585 3.4496,11.77214 3.36386,9.31445 -4.73331,4.21834 -3.78718,-2.68765 -6.22045,-6.00784 -6.31835,-7.58653 -3.63115,-8.00282 -0.79324,-5.8431 1.04961,-6.58723 2.1597,-5.53095 3.21322,-4.53013 4.95193,-3.22104 5.42523,-1.73909 4.74898,-0.52831 z"
       id="path529-3-8-5-0"
       sodipodi:nodetypes="cccccccccccccccccccccccccc" /><path
       id="path530-8-3-78-0"
       style="fill:none;fill-opacity:1;stroke:#191919;stroke-width:2;stroke-linecap:round;stroke-linejoin:round;stroke-dasharray:none;stroke-dashoffset:37.0394;stroke-opacity:1"
       d="m 33.41879,13.276797 c -11.45991,1.10536 -19.09459,11.01794 -19.09459,21.58573 0.0349,4.96407 1.36562,8.70524 3.6681,13.01494 4.58402,8.41414 16.03731,17.56763 17.00113,17.56763 0.39124,0 2.24861,-1.8555 4.6487,-4.66301 m 1.966333,-1.926068 c 4.90288,-5.10624 9.108377,-9.261242 11.765357,-14.435422 1.4755,-3.04919 2.28684,-6.49571 2.30198,-9.92636 0,-8.84787 -4.36207,-15.70791 -11.37979,-19.23571 m -8.62185,-2.14173 c 0,0 -1.51022,0.0659 -2.25534,0.15998"
       sodipodi:nodetypes="ccssccccccc" /><path
       style="fill:none;fill-opacity:1;stroke:#191919;stroke-width:2;stroke-linecap:round;stroke-linejoin:round;stroke-dasharray:none;stroke-dashoffset:12.6992;stroke-opacity:1;paint-order:normal"
       d="m 25.47198,23.792767 c 0,0 -0.34056,5.41666 2.49006,6.93056 6.13598,3.28169 11.4734,2.7515 15.636,4.19775 3.98755,1.38545 6.82429,-3.43478 4.7291,-5.32732 -3.68798,-3.33126 -10.2866,-9.19836 -9.87648,-9.92226 2.35038,-4.14873 11.66555,-16.5775202 10.98756,-16.1653402 -3.33903,2.02993 -11.9222,8.7254302 -13.53843,9.5525302 -0.1174,0.0601 -0.48983,0.0679 -0.90665,0.0967 m 4.65914,47.59366 c -9.68126,-20.96684 -6.27995,-27.81339 -6.27995,-27.81339"
       id="path531-3-1-6-7"
       sodipodi:nodetypes="cssssssccc" /><path
       d="m 34.55361,23.884582 c 0.0286,-1.38542 -1.09555,-1.69167 -1.81479,-1.91586 -0.71918,-0.22437 -2.0569,0.1538 -2.30773,1.04256 -0.48951,1.73473 0.603998,0.273484 2.027548,0.608015 1.4236,0.33477 1.893372,1.985795 2.095032,0.264825 z"
       style="fill:#191919;fill-opacity:1;stroke:none;stroke-width:2;stroke-dasharray:none;stroke-opacity:1"
       id="path532-1-2-6-7"
       sodipodi:nodetypes="ccsccc" /></g></svg>
